<?xml version="1.0" encoding="UTF-8" standalone="no"?>
<svg
   xmlns:dc="http://purl.org/dc/elements/1.1/"
   xmlns:cc="http://creativecommons.org/ns#"
   xmlns:rdf="http://www.w3.org/1999/02/22-rdf-syntax-ns#"
   xmlns:svg="http://www.w3.org/2000/svg"
   xmlns="http://www.w3.org/2000/svg"
   xmlns:sodipodi="http://sodipodi.sourceforge.net/DTD/sodipodi-0.dtd"
   xmlns:inkscape="http://www.inkscape.org/namespaces/inkscape"
   version="1.1"
   x="0px"
   y="0px"
   width="32"
   height="32"
   viewBox="-7.65 -13.389 32 32"
   enable-background="new -7.65 -13.389 162 176"
   xml:space="preserve"
   id="svg4636"
   sodipodi:docname="Org-mode-unicorn.svg"
   inkscape:version="1.0.2 (e86c870879, 2021-01-15)"><metadata
   id="metadata4640"><rdf:RDF><cc:Work
       rdf:about=""><dc:format>image/svg+xml</dc:format><dc:type
         rdf:resource="http://purl.org/dc/dcmitype/StillImage" /><dc:title></dc:title></cc:Work></rdf:RDF></metadata><sodipodi:namedview
   pagecolor="#ffffff"
   bordercolor="#666666"
   borderopacity="1"
   objecttolerance="10"
   gridtolerance="10"
   guidetolerance="10"
   inkscape:pageopacity="0"
   inkscape:pageshadow="2"
   inkscape:window-width="1871"
   inkscape:window-height="1076"
   id="namedview4638"
   showgrid="false"
   inkscape:zoom="17.366684"
   inkscape:cx="24.74588"
   inkscape:cy="20.182851"
   inkscape:window-x="45"
   inkscape:window-y="0"
   inkscape:window-maximized="1"
   inkscape:current-layer="svg4636" />
<defs
   id="defs4594">
</defs>
<path
   fill="#a04d32"
   stroke="#000000"
   stroke-width="0.392506"
   d="m 16.852263,-0.19324801 c -0.02542,-0.43480144 -0.352449,-0.60264854 -0.743216,-0.29331834 -0.895258,-0.1790278 -1.774022,-0.094828 -2.207452,-0.1354095 -0.950197,-0.1481087 -1.741282,-0.70782915 -1.741282,-0.70782915 0.115581,-0.1710218 0.06029,-0.5406718 -0.68183,-0.56607 -0.204127,-0.074814 -0.413712,-0.1831686 -0.611762,-0.2731655 0.06746,-0.1580468 -0.0165,-0.3914594 -0.0165,-0.3914594 0.301974,-0.092758 0.348231,-0.5303194 0.229178,-0.7880256 0.385188,0.011596 0.323924,-0.6512356 0.270722,-0.8807831 0.301974,-0.1274038 0.343643,-0.5288013 0.218637,-0.8459991 0.364354,-0.09262 0.374771,-0.5678645 0.343644,-0.9038347 0.374769,-0.023189 0.322808,-0.7532417 0.322808,-0.9039725 0.322934,-0.2317562 0.250012,-0.5446751 0.300734,-0.9072855 0.199043,-0.4486047 -0.07155,-0.5760083 -0.262411,-0.098004 -0.204749,0.4142347 -0.467412,0.5950567 -0.465055,0.901074 0.09362,0.1737825 -0.697581,0.4287279 -0.447693,0.9734027 -0.177092,0.2433509 -0.593406,0.5562697 -0.445458,0.9293707 -0.07515,0.1830306 -0.606175,0.6118967 -0.377121,1.017435 -0.499653,0.3708925 -0.469891,0.4603374 -0.364354,0.7996204 C 10.031608,-3.1659118 9.8863873,-3.0104858 9.80243,-2.84043 9.6388556,-3.0568645 9.4796212,-3.4517745 9.481977,-3.9852689 c 0,-0.4520554 -0.7563619,0.043895 -0.7563619,0.9364102 0,0.076745 -0.00707,0.1464522 -0.016742,0.2128456 -0.26167,0.033542 -0.5891913,0.097589 -1.0020344,0.2062201 -0.013145,0.010075 -0.019472,0.025674 -0.022571,0.043619 C 7.6680207,-2.65312 7.6556177,-2.7243442 7.6499127,-2.800538 7.5777408,-3.3236807 7.0380319,-4.1201262 6.77475,-3.1365091 6.6388304,-2.776107 6.5589653,-2.5302717 6.5124599,-2.3374409 v 0 c 0,0 -0.041668,0.031193 -0.1186814,0.0842 -0.3247927,0.2238899 -0.4417381,0.9228848 -1.6214846,1.36417365 -0.3982096,0.1489366 -0.9177047,0.2684725 -1.6070995,0.330587 -1.1868154,0.1066987 -3.45850664,2.38988885 -3.61067199,4.56845035 -0.035096,0.5471595 0.0384445,1.8961486 0.44595487218,3.0794984 2.4809352e-4,8.271e-4 3.7204539e-4,0.00196 6.2003782e-4,0.00282 0.00185833,0.00575 0.00396941,0.011133 0.00595463,0.016836 0.00645019,0.018498 0.01277358,0.036851 0.01934654,0.054937 0.03472369,0.099106 0.07180424,0.1939343 0.11099249,0.2846219 0.23376504,0.5559894 0.5531014,1.0476608 0.98392652,1.3640296 0.218761,0.1899324 0.4144554,0.3116766 0.54219,0.3812449 C 2.3960589,10.539634 3.9505763,12.265449 6.8814029,11.24498 11.377534,9.8254519 13.85881,13.151062 14.144663,13.384473 14.566186,13.858338 13.055075,9.2662836 9.8553853,7.2022885 7.9637971,6.053584 9.1512324,4.0750312 9.2867801,3.3763125 c 0,0 1.5163209,1.1811416 2.6150869,-0.6239054 0.992609,0.2846223 1.657696,-0.201803 2.511411,0.1421732 0.518751,0.2530129 2.699787,0.1002114 1.88923,-1.2566447 0.509698,-0.3703893 0.563521,-0.2505774 0.818494,-0.81443877 0.136912,-0.68353526 -0.173992,-0.82984939 -0.268739,-1.01674484 z M 8.1349366,-2.0289379 c -0.00508,0.00249 -0.010666,0.00552 -0.015501,0.00773 0.00483,-0.0047 0.00929,-0.00855 0.014262,-0.014079 3.722e-4,0.00194 8.681e-4,0.00441 0.00125,0.00635 z m -1.6634019,0.6243196 c -0.00906,0.059216 -0.017734,0.1144288 -0.026291,0.167847 0.00459,-0.1148423 0.010542,-0.2365872 0.017735,-0.3652331 0.00298,0.060044 0.0062,0.124781 0.00855,0.1973861 z m 1.3260835,-0.8741578 c 0.092516,0.1551481 0.2061115,0.3007721 0.2061115,0.3007721 0,0 -0.1085125,-0.1090462 -0.2061115,-0.3007721 z"
   id="path4596"
   style="fill:#000000" />



















</svg>
