<?xml version="1.0" encoding="UTF-8" standalone="no"?>
<svg
   xmlns:dc="http://purl.org/dc/elements/1.1/"
   xmlns:cc="http://creativecommons.org/ns#"
   xmlns:rdf="http://www.w3.org/1999/02/22-rdf-syntax-ns#"
   xmlns:svg="http://www.w3.org/2000/svg"
   xmlns="http://www.w3.org/2000/svg"
   xmlns:sodipodi="http://sodipodi.sourceforge.net/DTD/sodipodi-0.dtd"
   xmlns:inkscape="http://www.inkscape.org/namespaces/inkscape"
   sodipodi:docname="Gentoo.svg"
   inkscape:version="1.0.2 (e86c870879, 2021-01-15)"
   id="svg8"
   version="1.1"
   viewBox="0 0 95.249998 95.250003"
   height="360"
   width="360">
  <defs
     id="defs2">
    <inkscape:path-effect
       effect="powerclip"
       id="path-effect44"
       is_visible="true"
       lpeversion="1"
       inverse="true"
       flatten="false"
       hide_clip="false"
       message="Use fill-rule evenodd on &lt;b&gt;fill and stroke&lt;/b&gt; dialog if no flatten result after convert clip to paths." />
    <linearGradient
       id="_Linear1"
       x1="0"
       y1="0"
       x2="1"
       y2="0"
       gradientUnits="userSpaceOnUse"
       gradientTransform="matrix(64.741427,339.07678,-339.07678,64.741427,193.11207,-119.22056)">
      <stop
         offset="0%"
         style="stop-color:#fff;stop-opacity:1"
         id="stop975" />
      <stop
         offset="34%"
         style="stop-color:#fff;stop-opacity:1"
         id="stop977" />
      <stop
         offset="51%"
         style="stop-color:#bebdf3;stop-opacity:1"
         id="stop979" />
      <stop
         offset="75%"
         style="stop-color:#867fb7;stop-opacity:1"
         id="stop981" />
      <stop
         offset="87%"
         style="stop-color:#9f99c7;stop-opacity:1"
         id="stop983" />
      <stop
         offset="100%"
         style="stop-color:#524c76;stop-opacity:1"
         id="stop985" />
    </linearGradient>
    <linearGradient
       id="_Linear2"
       x1="0"
       y1="0"
       x2="1"
       y2="0"
       gradientUnits="userSpaceOnUse"
       gradientTransform="matrix(-73.9103,-331.394,331.394,-73.9103,256.323,293.128)">
      <stop
         offset="0%"
         style="stop-color:#fff;stop-opacity:1"
         id="stop988" />
      <stop
         offset="34%"
         style="stop-color:#fff;stop-opacity:1"
         id="stop990" />
      <stop
         offset="51%"
         style="stop-color:#bebbdb;stop-opacity:1"
         id="stop992" />
      <stop
         offset="75%"
         style="stop-color:#928bbe;stop-opacity:1"
         id="stop994" />
      <stop
         offset="87%"
         style="stop-color:#9f99c7;stop-opacity:1"
         id="stop996" />
      <stop
         offset="100%"
         style="stop-color:#524c76;stop-opacity:1"
         id="stop998" />
    </linearGradient>
    <radialGradient
       id="_Radial3"
       cx="0"
       cy="0"
       r="1"
       gradientUnits="userSpaceOnUse"
       gradientTransform="matrix(65.7758,0,0,50.4149,169.619,91.661)">
      <stop
         offset="0%"
         style="stop-color:#fff;stop-opacity:1"
         id="stop1001" />
      <stop
         offset="34%"
         style="stop-color:#fff;stop-opacity:1"
         id="stop1003" />
      <stop
         offset="51%"
         style="stop-color:#bebbdb;stop-opacity:1"
         id="stop1005" />
      <stop
         offset="75%"
         style="stop-color:#928bbe;stop-opacity:1"
         id="stop1007" />
      <stop
         offset="87%"
         style="stop-color:#9f99c7;stop-opacity:1"
         id="stop1009" />
      <stop
         offset="100%"
         style="stop-color:#524c76;stop-opacity:1"
         id="stop1011" />
    </radialGradient>
    <radialGradient
       id="_Radial4"
       cx="0"
       cy="0"
       r="1"
       gradientUnits="userSpaceOnUse"
       gradientTransform="matrix(-2.3857824,151.38004,-129.10741,-2.0327806,210.22029,143.88508)">
      <stop
         offset="0%"
         style="stop-color:#fff;stop-opacity:1"
         id="stop1014" />
      <stop
         offset="34%"
         style="stop-color:#fff;stop-opacity:1"
         id="stop1016" />
      <stop
         offset="51%"
         style="stop-color:#bebbdb;stop-opacity:1"
         id="stop1018" />
      <stop
         offset="75%"
         style="stop-color:#928bbe;stop-opacity:1"
         id="stop1020" />
      <stop
         offset="87%"
         style="stop-color:#9f99c7;stop-opacity:1"
         id="stop1022" />
      <stop
         offset="100%"
         style="stop-color:#524c76;stop-opacity:1"
         id="stop1024" />
    </radialGradient>
    <clipPath
       clipPathUnits="userSpaceOnUse"
       id="clipPath40">
      <path
         inkscape:export-ydpi="96"
         inkscape:export-xdpi="96"
         style="clip-rule:evenodd;display:none;fill:#090919;fill-opacity:1;fill-rule:evenodd;stroke-width:1;stroke-linejoin:round;stroke-miterlimit:1.41421"
         d="M 156.36801,15.122003 C 118.394,19.123013 111.12202,24.011 76.721022,50.037989 65.190985,58.761007 43.970979,79.985988 38.533993,105.166 c -2.070987,9.59003 0.3771,17.87003 7.282999,23.67601 22.116036,18.59299 59.131028,33.67698 89.497988,48.25899 8.89405,4.27101 3.00503,12.01498 -11.33797,24.43201 -36.193995,31.33401 -85.127972,69.47602 -88.543988,98.54002 -1.610022,13.69498 3.078973,32.30497 19.701987,41.82799 19.41901,11.125 59.729011,3.864 86.645991,-6.159 39.33401,-14.647 91.00303,-46.97301 132.02304,-78.74803 42.65499,-33.04298 82.31597,-75.011 84.27697,-81.85596 2.40901,-8.40602 2.16901,-16.16903 -2.48001,-25.09602 -7.30098,-14.01699 -17.06197,-24.432 -27.54196,-36.09099 C 299.93699,84.304006 270.18301,58.253995 234.584,38.290997 208.87699,23.875013 186.25902,11.971996 156.36801,15.122003 Z m 55.78101,66.46602 c 27.43399,13.262953 55.60596,48.101957 -0.24496,68.153977 -15.187,5.45302 -63.35202,-13.391 -61.878,-39.10698 2.14997,-37.987013 28.625,-45.242025 62.123,-29.046997 z"
         id="path42" />
      <path
         id="lpe_path-effect44"
         style="clip-rule:evenodd;fill:#090919;fill-opacity:1;fill-rule:evenodd;stroke-width:1;stroke-linejoin:round;stroke-miterlimit:1.41421"
         class="powerclip"
         d="M 15.643508,1.1576845 H 384.27076 V 371.68644 H 15.643508 Z M 156.36801,15.122003 C 118.394,19.123013 111.12202,24.011 76.721022,50.037989 65.190985,58.761007 43.970979,79.985988 38.533993,105.166 c -2.070987,9.59003 0.3771,17.87003 7.282999,23.67601 22.116036,18.59299 59.131028,33.67698 89.497988,48.25899 8.89405,4.27101 3.00503,12.01498 -11.33797,24.43201 -36.193995,31.33401 -85.127972,69.47602 -88.543988,98.54002 -1.610022,13.69498 3.078973,32.30497 19.701987,41.82799 19.41901,11.125 59.729011,3.864 86.645991,-6.159 39.33401,-14.647 91.00303,-46.97301 132.02304,-78.74803 42.65499,-33.04298 82.31597,-75.011 84.27697,-81.85596 2.40901,-8.40602 2.16901,-16.16903 -2.48001,-25.09602 -7.30098,-14.01699 -17.06197,-24.432 -27.54196,-36.09099 C 299.93699,84.304006 270.18301,58.253995 234.584,38.290997 208.87699,23.875013 186.25902,11.971996 156.36801,15.122003 Z m 55.78101,66.46602 h 4e-5 c -33.498,-16.195028 -59.97303,-8.940016 -62.123,29.046997 -1.47402,25.71598 46.691,44.56 61.878,39.10698 55.85092,-20.05202 27.67895,-54.891024 0.24496,-68.153977 z" />
    </clipPath>
  </defs>
  <sodipodi:namedview
     inkscape:window-maximized="0"
     inkscape:window-y="0"
     inkscape:window-x="0"
     inkscape:window-height="1080"
     inkscape:window-width="1920"
     inkscape:showpageshadow="false"
     units="px"
     showgrid="false"
     inkscape:document-rotation="0"
     inkscape:current-layer="layer1"
     inkscape:document-units="px"
     inkscape:cy="187.15741"
     inkscape:cx="223.44873"
     inkscape:zoom="1"
     inkscape:pageshadow="2"
     inkscape:pageopacity="0.0"
     borderopacity="1.0"
     bordercolor="#666666"
     pagecolor="#ffffff"
     id="base" />
  <metadata
     id="metadata5">
    <rdf:RDF>
      <cc:Work
         rdf:about="">
        <dc:format>image/svg+xml</dc:format>
        <dc:type
           rdf:resource="http://purl.org/dc/dcmitype/StillImage" />
        <dc:title></dc:title>
      </cc:Work>
    </rdf:RDF>
  </metadata>
  <g
     id="layer1"
     inkscape:groupmode="layer"
     inkscape:label="Calque 1">
    <g
       inkscape:export-ydpi="96"
       inkscape:export-xdpi="96"
       transform="matrix(0.2655961,0,0,0.26419529,-5.4828352,-1.6268312)"
       id="mid"
       style="clip-rule:evenodd;fill:#000000;fill-opacity:1;fill-rule:evenodd;stroke-linejoin:round;stroke-miterlimit:1.41421"
       clip-path="url(#clipPath40)"
       inkscape:path-effect="#path-effect44">
      <path
         style="fill:#000000;fill-opacity:1"
         d="m 123.659,189.035 c -19.242,16.246 -32.036,27.2 -48.075,41.86 -38.626,35.304 -64.871,62.176 -51.34,98.909 15.609,42.374 49.824,40.226 89.947,32.35 C 217.612,341.756 387.617,211.059 378.952,162.784 371.94,123.723 276.96,46.063 220.725,18.428 203.156,9.794 182.909,5.329 162.601,6.285 85.274,9.935 24.886,80.337 27.971,118.482 c 3.001,37.11 96.795,69.446 95.688,70.553 z M 112.052,59.482 c -23.268,25.888 -8.392,75.974 30.195,103.274 45.152,31.945 118.269,37.729 132.819,13.093 27.14,-45.952 -2.493,-94.54 -46.727,-116.214 C 184.628,38.217 126.556,43.345 112.052,59.482 Z"
         id="path2975"
         inkscape:original-d="m 123.659,189.035 c -19.242,16.246 -32.036,27.2 -48.075,41.86 -38.626,35.304 -64.871,62.176 -51.34,98.909 15.609,42.374 49.824,40.226 89.947,32.35 C 217.612,341.756 387.617,211.059 378.952,162.784 371.94,123.723 276.96,46.063 220.725,18.428 203.156,9.794 182.909,5.329 162.601,6.285 85.274,9.935 24.886,80.337 27.971,118.482 c 3.001,37.11 96.795,69.446 95.688,70.553 z M 112.052,59.482 c -23.268,25.888 -8.392,75.974 30.195,103.274 45.152,31.945 118.269,37.729 132.819,13.093 27.14,-45.952 -2.493,-94.54 -46.727,-116.214 C 184.628,38.217 126.556,43.345 112.052,59.482 Z" />
      <path
         style="fill:#000000;fill-opacity:1"
         d="m 191.403,161.67 c 32.666,4.541 60.822,-8.541 65.225,-40.798 3.354,-24.571 -34.25,-51.417 -56.859,-57.608 -18.88,-5.171 -59.869,1.478 -62.633,37.186 -2.872,37.121 35.22,58.573 54.267,61.22 z M 175.407,99.931 c -21.468,33.258 31.169,43.483 39.228,37.418 34.744,-26.149 -29.77,-52.07 -39.228,-37.418 z"
         id="path4976"
         inkscape:original-d="m 191.403,161.67 c 32.666,4.541 60.822,-8.541 65.225,-40.798 3.354,-24.571 -34.25,-51.417 -56.859,-57.608 -18.88,-5.171 -59.869,1.478 -62.633,37.186 -2.872,37.121 35.22,58.573 54.267,61.22 z M 175.407,99.931 c -21.468,33.258 31.169,43.483 39.228,37.418 34.744,-26.149 -29.77,-52.07 -39.228,-37.418 z" />
    </g>
  </g>
</svg>
